<svg width="444" height="45" viewBox="0 0 444 45" fill="none" xmlns="http://www.w3.org/2000/svg">
<path d="M5.4375 14.0156C6.90625 9.90625 9.90625 6.91406 14.4375 5.03906C19.5156 4.50781 22.25 6.39063 22.6406 10.6875C21.8125 16.5938 17.3672 20.7031 9.30469 23.0156L8.78906 23.7891C9.86719 24.4766 11.3203 25.0781 13.1484 25.5938C13.2109 25.7656 13.3828 25.9375 13.6641 26.1094L14.4375 26.625L15.2109 26.8594L15.9844 27.375H16.9922L17.5078 28.1484C18.2109 28.2891 18.9844 28.6328 19.8281 29.1797L20.8594 29.6953L21.8906 30.2109L22.8984 30.4688L23.6719 30.9844L24.9609 31.5L25.7344 31.7578L26.7656 32.2734L28.5703 31.5C29.0703 32.9688 28.6406 34.3359 27.2812 35.6016C26 35.3359 24.7969 34.7344 23.6719 33.7969C22.9531 33.4219 21.9297 33 20.6016 32.5312L20.3438 32.0156L19.5703 31.7578L19.0547 31.2422L18.0234 30.9844L17.25 30.4688L15.9844 29.9531L14.9531 29.1797C14.1406 28.9609 13.2812 28.5312 12.375 27.8906H11.6016L10.5703 27.375L9.30469 26.8594L7.75781 25.8516L5.95312 24.8203C5.70312 24.1172 5.53125 23.2578 5.4375 22.2422L6.72656 21.2109C12.6016 20.5703 17.1406 17.4922 20.3438 11.9766L19.8281 10.1719V9.39844C19.375 8.91406 18.7734 8.39844 18.0234 7.85156C16.8359 7.71094 15.3828 7.79688 13.6641 8.10938C5.57031 13.9688 2.57031 23.4766 4.66406 36.6328V41.25C3.86719 41.8281 2.92969 41.9141 1.85156 41.5078C1.63281 40.0547 1.11719 38.5156 0.304688 36.8906C0.507812 36.1562 0.59375 35.2969 0.5625 34.3125C0.546875 33.5312 0.632812 31.8203 0.820312 29.1797C0.835938 28.3828 1.09375 27.6094 1.59375 26.8594V25.8516L1.33594 24.8203C1.71094 24.2422 2.05469 23.4688 2.36719 22.5C2.24219 21.5781 2.24219 20.4688 2.36719 19.1719V15.5625L1.85156 15.0469L2.10938 14.2734C3.03125 13.7578 4.14062 13.6719 5.4375 14.0156ZM32.2266 33.1406C30.8672 24.9531 33.8281 18.1172 41.1094 12.6328L43.875 13.2422C47.4219 20.9609 44.4609 26.6797 34.9922 30.3984V32.8359C37.0234 36.4453 40.1875 37.1562 44.4844 34.9688L45.0938 36.5156C37.875 40.9062 33.5859 39.7812 32.2266 33.1406ZM42.0469 21.2109C43.1875 18.8984 42.9844 17.2656 41.4375 16.3125C38.9531 18.375 37.1094 21.2266 35.9062 24.8672L35.6016 26.1094C38.0078 25.375 40.1562 23.7422 42.0469 21.2109ZM52.5703 4.6875L52.7109 4.40625C53.1953 4.625 53.6953 4.625 54.2109 4.40625C54.2891 5.10938 54.5547 5.74219 55.0078 6.30469C54.7422 6.96094 54.6562 7.72656 54.75 8.60156L54.2109 9.42188C54.2422 10.0625 54.1484 10.7422 53.9297 11.4609V13.7578L54.0703 14.0391C54.0547 14.5703 54.1016 15.2031 54.2109 15.9375C53.9297 16.7031 53.9297 17.5547 54.2109 18.4922C54.1172 19.0547 54.1172 19.6875 54.2109 20.3906C53.8984 22.4062 54.0781 24.6719 54.75 27.1875C54.7344 27.6719 54.8203 28.2578 55.0078 28.9453V29.3438L55.2891 29.625C56.3516 29.2031 57.2969 28.4766 58.125 27.4453C58.5938 27.2109 59.0469 26.8047 59.4844 26.2266C59.8125 26.1172 60.1328 25.8906 60.4453 25.5469L60.8438 25.2891C61.4219 24.9297 62.1016 24.3828 62.8828 23.6484C63.4609 23.5391 64 23.2266 64.5 22.7109C65.3594 22.5703 66.3984 22.25 67.6172 21.75C68.0859 21.7969 68.5859 21.75 69.1172 21.6094C69.5391 21.8438 70.0312 22.0312 70.5938 22.1719C70.875 22.5156 71.2422 22.7812 71.6953 22.9688C71.8359 24.0469 71.7422 25.2656 71.4141 26.625C68.1641 31.9375 63.3281 35.9141 56.9062 38.5547L56.3672 39.2344C55.9141 39.1562 55.4219 39.2031 54.8906 39.375C54.1562 38.8438 53.8359 38.0781 53.9297 37.0781C54.4609 36.5 55.1875 36.0469 56.1094 35.7188L56.9062 35.1797L57.0469 34.7578H57.8672C58.2578 34.5391 58.6172 34.2266 58.9453 33.8203C59.6172 33.6328 60.2031 33.2266 60.7031 32.6016L61.125 32.7422C61.7812 32.2891 62.5469 31.6094 63.4219 30.7031C63.5469 30.6875 63.6328 30.5938 63.6797 30.4219C64.8672 29.7344 65.8672 28.6953 66.6797 27.3047L67.0781 27.1875L67.3594 26.9062V25.9453C67.5625 25.9609 67.7812 25.9219 68.0156 25.8281V24.8672C66.9219 24.9297 65.9297 25.3359 65.0391 26.0859C64.0859 26.1484 63.3203 26.6484 62.7422 27.5859C62.0234 27.6641 61.5703 28.1172 61.3828 28.9453C60.5859 29.0391 60.0469 29.5781 59.7656 30.5625C58.8594 30.7969 58.0938 31.4297 57.4688 32.4609C56.75 32.6016 56.1172 32.9609 55.5703 33.5391C54.5391 33.3828 53.4062 32.9375 52.1719 32.2031C52.1406 31.5 51.9141 30.7734 51.4922 30.0234C51.5391 29.2891 51.4062 28.4766 51.0938 27.5859L51.2344 27.1875L50.9531 26.7656C50.8906 26.1719 50.8906 25.4531 50.9531 24.6094L50.6719 23.6484L50.8125 22.9688L50.9531 22.5703C51 22.2891 50.9062 22.0156 50.6719 21.75C50.7188 21.4688 50.7188 21.1094 50.6719 20.6719C50.6094 20.0312 50.6562 19.2188 50.8125 18.2344L50.6719 17.6953V15.5156L50.8125 14.8359C50.7188 14.3672 50.7188 13.875 50.8125 13.3594C50.7344 13.0938 50.6875 12.7266 50.6719 12.2578L50.9531 10.1016C50.6406 8.61719 50.6406 6.99219 50.9531 5.22656C51.3594 4.96094 51.8984 4.78125 52.5703 4.6875ZM76.2891 33.1406C74.9297 24.9531 77.8906 18.1172 85.1719 12.6328L87.9375 13.2422C91.4844 20.9609 88.5234 26.6797 79.0547 30.3984V32.8359C81.0859 36.4453 84.25 37.1562 88.5469 34.9688L89.1562 36.5156C81.9375 40.9062 77.6484 39.7812 76.2891 33.1406ZM86.1094 21.2109C87.25 18.8984 87.0469 17.2656 85.5 16.3125C83.0156 18.375 81.1719 21.2266 79.9688 24.8672L79.6641 26.1094C82.0703 25.375 84.2188 23.7422 86.1094 21.2109ZM110.109 14.2734L110.414 13.6641C111.039 14.0391 111.883 14.3359 112.945 14.5547C114.086 15.3984 114.141 16.4531 113.109 17.7188C107.625 17.8438 103.227 20.3906 99.9141 25.3594L100.219 26.25C99.5 25.9688 99 26.3672 98.7188 27.4453L97.6641 28.8047C96.0859 34.2422 98.0312 36.2891 103.5 34.9453L105.445 35.0859L106.195 34.5C106.602 34.6562 106.953 34.5547 107.25 34.1953C108.25 34.3984 109.25 34.1953 110.25 33.5859C111 33.6016 111.75 33.4531 112.5 33.1406L112.195 34.5C111.617 34.7188 110.867 35.1172 109.945 35.6953L107.695 36.2812L107.25 36.4453L106.805 36.75L106.359 37.0312L105.75 37.1953L105.445 37.7812C104.852 37.5469 104.203 37.6484 103.5 38.0859L102.914 38.6953C102.211 38.5547 101.406 38.6016 100.5 38.8359L99.75 38.5312C99.1094 38.6875 98.4141 38.5859 97.6641 38.2266H97.2188L96.7734 38.3906C95.3359 37.3281 94.2812 35.9766 93.6094 34.3359C93.3594 32.8672 93.3594 31.1172 93.6094 29.0859C93.9531 28.6484 94.1562 28.1562 94.2188 27.6094C94.75 26.9531 95.1953 26.1484 95.5547 25.1953L95.8594 25.0547V24C96.9219 23.2344 97.8203 22.1328 98.5547 20.6953C99.6641 20.1797 100.516 19.2812 101.109 18H102.164C104.227 16.0156 106.875 14.7734 110.109 14.2734ZM134.109 14.2734L134.414 13.6641C135.039 14.0391 135.883 14.3359 136.945 14.5547C138.086 15.3984 138.141 16.4531 137.109 17.7188C131.625 17.8438 127.227 20.3906 123.914 25.3594L124.219 26.25C123.5 25.9688 123 26.3672 122.719 27.4453L121.664 28.8047C120.086 34.2422 122.031 36.2891 127.5 34.9453L129.445 35.0859L130.195 34.5C130.602 34.6562 130.953 34.5547 131.25 34.1953C132.25 34.3984 133.25 34.1953 134.25 33.5859C135 33.6016 135.75 33.4531 136.5 33.1406L136.195 34.5C135.617 34.7188 134.867 35.1172 133.945 35.6953L131.695 36.2812L131.25 36.4453L130.805 36.75L130.359 37.0312L129.75 37.1953L129.445 37.7812C128.852 37.5469 128.203 37.6484 127.5 38.0859L126.914 38.6953C126.211 38.5547 125.406 38.6016 124.5 38.8359L123.75 38.5312C123.109 38.6875 122.414 38.5859 121.664 38.2266H121.219L120.773 38.3906C119.336 37.3281 118.281 35.9766 117.609 34.3359C117.359 32.8672 117.359 31.1172 117.609 29.0859C117.953 28.6484 118.156 28.1562 118.219 27.6094C118.75 26.9531 119.195 26.1484 119.555 25.1953L119.859 25.0547V24C120.922 23.2344 121.82 22.1328 122.555 20.6953C123.664 20.1797 124.516 19.2812 125.109 18H126.164C128.227 16.0156 130.875 14.7734 134.109 14.2734ZM154.336 14.7891C154.414 14.7891 154.492 14.7109 154.57 14.5547C154.961 14.6953 155.414 14.7734 155.93 14.7891C155.898 15.1641 155.977 15.5781 156.164 16.0312C155.695 16.1562 155.539 16.4375 155.695 16.875L154.336 16.9922C153.992 17.2422 153.711 17.6094 153.492 18.0938C152.18 18.6406 151.156 19.6172 150.422 21.0234C149.609 21.6641 148.961 22.5547 148.477 23.6953L147.75 24.0703L147.516 24.9141C146.828 25.7891 146.336 26.8906 146.039 28.2188L145.664 28.4766L145.078 30.1641C144.859 30.7266 144.734 31.4609 144.703 32.3672L144.445 32.7422V33.3281L144.211 33.7031C144.164 34.4062 144.367 35.1016 144.82 35.7891C145.148 35.7891 145.516 35.8672 145.922 36.0234C148.172 34.5234 149.719 32.3672 150.562 29.5547C151.672 28.2422 152.234 26.5781 152.25 24.5625C152.766 24.2656 153.18 23.8125 153.492 23.2031C153.961 23.4375 154.531 23.5234 155.203 23.4609C155.484 23.6953 155.844 23.7734 156.281 23.6953C156.234 24.2891 156.273 24.9844 156.398 25.7812L156.047 25.5234C155.609 27.2422 156.102 28.6719 157.523 29.8125C157.602 30.1406 157.797 30.3828 158.109 30.5391C158.391 31.6484 159.086 31.8906 160.195 31.2656C160.023 31.5625 159.984 31.9297 160.078 32.3672C159.891 32.7266 159.766 33.1328 159.703 33.5859L159.586 33.9609C159.117 33.7109 158.594 33.6641 158.016 33.8203C157.766 33.6016 157.438 33.4844 157.031 33.4688C156.969 32.9688 156.719 32.8828 156.281 33.2109C155.906 32.6172 155.336 32.0078 154.57 31.3828L153.867 30.4219L153.492 30.3047L152.508 32.1328L152.391 32.4844L152.25 32.8594L152.016 32.9766V33.3281L151.406 33.9609L151.289 34.3125L151.055 34.6875L150.914 35.0391L150.188 36.0234L149.93 36.3984L148.852 37.2422L148.734 37.6172C148.125 37.7578 147.555 38.125 147.023 38.7188C146.477 38.7188 145.828 38.7969 145.078 38.9531C144.812 38.7969 144.484 38.7578 144.094 38.8359C143.578 38.0234 142.758 37.4062 141.633 36.9844C141.68 36.3281 141.562 35.6016 141.281 34.8047V33.7031C142.078 28.5156 144.398 23.7578 148.242 19.4297C148.383 19.0391 148.664 18.6328 149.086 18.2109V17.8594C149.68 17.5938 150.172 17.1484 150.562 16.5234C151.047 16.3828 151.492 16.0547 151.898 15.5391L153.961 14.7891H154.336ZM189.492 4.28906C190.383 4.44531 191.344 4.35156 192.375 4.00781C199.578 4.21094 201.789 5.84375 199.008 8.90625C197.57 7.9375 195.938 7.35938 194.109 7.17188C192.953 7.01562 191.602 7.01562 190.055 7.17188C178.836 12.4531 179.32 18.3203 191.508 24.7734C192.195 25.5703 193.156 26.3438 194.391 27.0938L194.977 27.6562L195.539 28.2422L196.406 28.5234C197.453 29.8672 197.938 31.4062 197.859 33.1406C193.562 36.6406 188.367 38.7578 182.273 39.4922C181.852 38.7109 181.852 37.75 182.273 36.6094C186.461 36.375 190.594 34.8359 194.672 31.9922C194.328 30.6797 193.562 29.4297 192.375 28.2422C176.109 19.1797 175.148 11.1953 189.492 4.28906ZM223.148 13.125L224.25 12.375H225.375H225.75H225.375H225.75C229.469 21.6875 227.117 29.9688 218.695 37.2188C211.977 42.1406 207.523 40.4141 205.336 32.0391C205.383 27.6797 206.492 23.1016 208.664 18.3047L209.039 17.5781V14.9766L209.414 13.8516L212.391 13.125C212.828 13.6719 213.445 14.1641 214.242 14.6016L212.391 19.4297L212.016 20.1562C211.609 20.875 211.234 21.7422 210.891 22.7578C210.703 23.1172 210.586 23.6094 210.539 24.2344L209.789 24.9844C209.43 26.6094 209.18 28.7109 209.039 31.2891L210.539 35.7422L213.867 36.1172C221.945 30.9297 225.039 23.2656 223.148 13.125ZM241.383 1.64062L242.203 0.820312C242.797 0.820312 243.531 0.914062 244.406 1.10156C244.469 3.80469 244.008 7.5625 243.023 12.375V13.7344L242.742 14.5781V17.0391L242.484 18.1406C244.25 18.3125 246.539 18.3125 249.352 18.1406L250.453 18.4219H251.555L252.375 19.5234L251.836 20.3438L246.867 20.625L246.328 20.8828H243.586L242.742 21.1641L241.922 21.4453L241.664 23.3672C241.648 23.9609 241.555 24.6953 241.383 25.5703C241.398 26.8359 241.211 28.3906 240.82 30.2344L241.102 31.3359C240.695 32.1797 240.516 33.1875 240.562 34.3594C240.328 35.4531 240.234 36.7344 240.281 38.2031L239.719 39.5859C238.703 39.3984 237.789 38.8516 236.977 37.9453C237.273 37.1484 237.367 36.1406 237.258 34.9219L237.539 34.0781C237.492 33.2344 237.766 32.2266 238.359 31.0547L238.617 27.4922L238.898 25.8281L239.461 21.9844C238.211 21.7344 236.742 21.8281 235.055 22.2656C233.82 21.6875 232.266 21.3203 230.391 21.1641L229.828 19.2422C230.328 18.8984 231.062 18.5312 232.031 18.1406C234.438 18.9062 237.094 19.0859 240 18.6797C240.016 18.0859 240.109 17.3594 240.281 16.5V14.8359L240.562 14.0156V10.4531L241.102 9.60938L240.82 8.78906C241.086 7.82031 241.18 6.63281 241.102 5.22656L241.383 3.02344V1.64062ZM257.602 1.64062L258.422 0.820312C259.016 0.820312 259.75 0.914062 260.625 1.10156C260.688 3.80469 260.227 7.5625 259.242 12.375V13.7344L258.961 14.5781V17.0391L258.703 18.1406C260.469 18.3125 262.758 18.3125 265.57 18.1406L266.672 18.4219H267.773L268.594 19.5234L268.055 20.3438L263.086 20.625L262.547 20.8828H259.805L258.961 21.1641L258.141 21.4453L257.883 23.3672C257.867 23.9609 257.773 24.6953 257.602 25.5703C257.617 26.8359 257.43 28.3906 257.039 30.2344L257.32 31.3359C256.914 32.1797 256.734 33.1875 256.781 34.3594C256.547 35.4531 256.453 36.7344 256.5 38.2031L255.938 39.5859C254.922 39.3984 254.008 38.8516 253.195 37.9453C253.492 37.1484 253.586 36.1406 253.477 34.9219L253.758 34.0781C253.711 33.2344 253.984 32.2266 254.578 31.0547L254.836 27.4922L255.117 25.8281L255.68 21.9844C254.43 21.7344 252.961 21.8281 251.273 22.2656C250.039 21.6875 248.484 21.3203 246.609 21.1641L246.047 19.2422C246.547 18.8984 247.281 18.5312 248.25 18.1406C250.656 18.9062 253.312 19.0859 256.219 18.6797C256.234 18.0859 256.328 17.3594 256.5 16.5V14.8359L256.781 14.0156V10.4531L257.32 9.60938L257.039 8.78906C257.305 7.82031 257.398 6.63281 257.32 5.22656L257.602 3.02344V1.64062ZM267.328 19.7578C269.641 16.4141 272.984 14.1562 277.359 12.9844H278.227C282.195 14.6719 284.164 17.9141 284.133 22.7109C285.023 28.8828 282.273 33.6953 275.883 37.1484C270.93 40.6484 267.781 39.8594 266.438 34.7812C265.984 30.2969 267.359 26.0781 270.562 22.125C270.641 21.4219 271.039 20.7344 271.758 20.0625V19.1719C272.445 19.0469 273.133 18.6562 273.82 18C274.227 18.3281 274.711 18.4219 275.273 18.2812C275.289 19.125 275.391 20.1094 275.578 21.2344C271.266 24.6094 269.203 29.3203 269.391 35.3672L270.867 35.9766C280.492 33.1328 283.438 26.6484 279.703 16.5234C276.781 14.4766 273.047 15.8516 268.5 20.6484L267.328 19.7578ZM290.977 11.5312C291.727 11.1562 292.523 10.5547 293.367 9.72656L294.867 10.6172L294.586 13.3359C292.945 17.2109 292.141 21.9141 292.172 27.4453C292.25 28.2266 292.148 29.0234 291.867 29.8359L292.172 30.4453L291.867 31.3359C292.867 29.9922 293.867 28.1953 294.867 25.9453L295.477 25.0312L295.781 24.1406L296.367 23.2266L296.977 22.6406L297.281 21.7266L297.586 20.8359L298.781 20.5312L299.086 19.6406C299.883 19.5312 300.781 19.625 301.781 19.9219L302.086 24.7266V25.6406L301.781 27.7266C301.609 28.2891 301.508 29.0938 301.477 30.1406L301.195 30.75V34.0312V35.25L301.781 37.9453L302.086 38.5547L301.195 39.4453C298.039 37.6484 297.234 32.9453 298.781 25.3359C297.609 26.7578 296.609 28.6562 295.781 31.0312L295.477 31.6406L294.867 32.25V33.1406C294.195 34.2188 293.594 35.7188 293.062 37.6406L292.781 38.25L292.477 39.1406C291.508 39.4375 290.406 39.3359 289.172 38.8359C289.312 37.6641 289.211 36.2656 288.867 34.6406C289.18 33.1875 289.18 31.4844 288.867 29.5312L289.172 26.8359L289.477 25.6406V23.2266L289.758 22.0312L290.367 17.2266C290.305 16.1328 290.508 14.8359 290.977 13.3359V11.5312ZM322.406 3.60938L323.578 2.4375C324.484 2.57812 325.344 2.96875 326.156 3.60938C326.188 4.65625 326.031 5.90625 325.688 7.35938V8.27344L325.453 8.74219V10.3828L325.219 11.0859V12.0234C325.375 13.0703 325.297 14.3203 324.984 15.7734V16.4766V17.1797V18.3281V19.2656V20.2031V21.1406C326.891 20.4688 328.688 19.375 330.375 17.8594C330.531 17.8906 330.688 17.8203 330.844 17.6484C332.219 17.1641 333.539 16.3047 334.805 15.0703C336.539 14.4453 338.18 13.3516 339.727 11.7891C340.57 11.6484 341.43 11.9609 342.305 12.7266L341.836 14.6016L340.664 14.3672C339.695 14.8047 338.602 15.5078 337.383 16.4766H336.68L336.211 16.9453L334.805 17.8594L334.102 18.3281L333.398 18.7969L332.461 19.2656L331.992 19.9688C331.289 20.0781 330.516 20.4688 329.672 21.1406L328.969 21.8438C327.766 22.2031 326.672 22.9062 325.688 23.9531C327.406 24.5781 329.508 24.9688 331.992 25.125C332.695 25.4219 333.477 25.5781 334.336 25.5938L334.805 26.0625H335.742H336.68L337.383 26.2969L338.555 26.5312H339.258L340.195 27H341.367L341.836 27.9141L341.367 28.8516C339.867 28.7891 337.914 28.4766 335.508 27.9141H334.805L334.102 27.7031H333.164L332.461 27.4688C331.242 27.0312 329.922 26.875 328.5 27C327.422 26.5781 326.172 26.3438 324.75 26.2969C324.719 26.4531 324.797 26.6094 324.984 26.7656V28.3828L324.75 29.0859C324.812 29.8047 324.812 30.6641 324.75 31.6641V32.6016V33.3047C324.859 33.7578 324.938 34.3828 324.984 35.1797V38.4375L325.688 38.9062C325.453 39.8125 325.297 40.9062 325.219 42.1875C324.859 42.75 324.312 43.0625 323.578 43.125C322.609 41.2344 322.375 39.0547 322.875 36.5859C322.547 35.2109 322.547 33.6484 322.875 31.8984C322.734 30.8359 322.734 29.5078 322.875 27.9141C323.188 26.4766 322.797 25.4688 321.703 24.8906C321.781 24.2656 321.625 23.6406 321.234 23.0156C321.578 22.5781 322.125 22.1875 322.875 21.8438C322.812 20.5 322.891 18.7891 323.109 16.7109L322.875 16.0078L323.109 15.0703V9.91406C323.281 9.24219 323.281 8.46094 323.109 7.57031V5.48438L322.875 4.3125C322.656 4.15625 322.5 3.92187 322.406 3.60938ZM348.094 19.7578C350.406 16.4141 353.75 14.1562 358.125 12.9844H358.992C362.961 14.6719 364.93 17.9141 364.898 22.7109C365.789 28.8828 363.039 33.6953 356.648 37.1484C351.695 40.6484 348.547 39.8594 347.203 34.7812C346.75 30.2969 348.125 26.0781 351.328 22.125C351.406 21.4219 351.805 20.7344 352.523 20.0625V19.1719C353.211 19.0469 353.898 18.6562 354.586 18C354.992 18.3281 355.477 18.4219 356.039 18.2812C356.055 19.125 356.156 20.1094 356.344 21.2344C352.031 24.6094 349.969 29.3203 350.156 35.3672L351.633 35.9766C361.258 33.1328 364.203 26.6484 360.469 16.5234C357.547 14.4766 353.812 15.8516 349.266 20.6484L348.094 19.7578ZM368.555 33.1406C367.195 24.9531 370.156 18.1172 377.438 12.6328L380.203 13.2422C383.75 20.9609 380.789 26.6797 371.32 30.3984V32.8359C373.352 36.4453 376.516 37.1562 380.812 34.9688L381.422 36.5156C374.203 40.9062 369.914 39.7812 368.555 33.1406ZM378.375 21.2109C379.516 18.8984 379.312 17.2656 377.766 16.3125C375.281 18.375 373.438 21.2266 372.234 24.8672L371.93 26.1094C374.336 25.375 376.484 23.7422 378.375 21.2109ZM396.07 31.5469C384.008 28.125 383.117 22.2109 393.398 13.8047C395.836 12.6797 398.727 12.1953 402.07 12.3516C404.711 13.8672 405.859 16.1953 405.516 19.3359L403.969 19.5703L403.711 17.0156C398.43 13.875 393.766 15.5312 389.719 21.9844C389.125 25.9531 391.844 28.375 397.875 29.25C398.516 30.0312 399.312 30.7344 400.266 31.3594C400.484 35.9219 396.898 39.3828 389.508 41.7422L388.008 40.3125C391.508 38.7969 394.461 36.3281 396.867 32.9062L396.07 31.5469ZM409.664 33.1406C408.305 24.9531 411.266 18.1172 418.547 12.6328L421.312 13.2422C424.859 20.9609 421.898 26.6797 412.43 30.3984V32.8359C414.461 36.4453 417.625 37.1562 421.922 34.9688L422.531 36.5156C415.312 40.9062 411.023 39.7812 409.664 33.1406ZM419.484 21.2109C420.625 18.8984 420.422 17.2656 418.875 16.3125C416.391 18.375 414.547 21.2266 413.344 24.8672L413.039 26.1094C415.445 25.375 417.594 23.7422 419.484 21.2109ZM429 14.9766L430.289 14.0156C431.352 14.0938 432.422 14.5234 433.5 15.3047C433.062 16.7422 432.742 18.5625 432.539 20.7656L432.211 22.0547L432.539 22.6875C432.258 23.3906 432.148 24.25 432.211 25.2656C434.898 21.4219 438.758 19.2812 443.789 18.8438V20.7656C436.633 23.5156 432.883 29.0781 432.539 37.4531L431.578 38.7422C430.516 38.6328 429.336 38.3125 428.039 37.7812C428.367 36.2344 428.578 34.3047 428.672 31.9922V31.0312L429 29.1094C429 28.1406 429 26.8594 429 25.2656V24.2812L429.328 23.6484L429 23.0156V21.0703C429.188 19.4297 429.188 17.3984 429 14.9766Z" fill="white"/>
</svg>
