<svg xmlns="http://www.w3.org/2000/svg" preserveAspectRatio="xMidYMid meet" viewBox="0 0 905 150" aria-label="Chart: Member Timeline" role="img" id="simple-timeline"><g transform="translate(0,30)" fill="none" font-size="10" font-family="sans-serif" text-anchor="middle"><g class="tick" opacity="1" transform="translate(35.21482560765168,0)"><line stroke="#231F20" y2="70" stroke-width="0.5" y1="0"></line><text fill="currentColor" y="-9" dy="0em" aria-hidden="true">1920</text></g><g class="tick" opacity="1" transform="translate(111.19248285074563,0)"><line stroke="#231F20" y2="70" stroke-width="0.5" y1="0"></line><text fill="currentColor" y="-9" dy="0em" aria-hidden="true">1922</text></g><g class="tick" opacity="1" transform="translate(187.06620349022384,0)"><line stroke="#231F20" y2="70" stroke-width="0.5" y1="0"></line><text fill="currentColor" y="-9" dy="0em" aria-hidden="true">1924</text></g><g class="tick" opacity="1" transform="translate(263.0438607333178,0)"><line stroke="#231F20" y2="70" stroke-width="0.5" y1="0"></line><text fill="currentColor" y="-9" dy="0em" aria-hidden="true">1926</text></g><g class="tick" opacity="1" transform="translate(338.91758137279606,0)"><line stroke="#231F20" y2="70" stroke-width="0.5" y1="0"></line><text fill="currentColor" y="-9" dy="0em" aria-hidden="true">1928</text></g><g class="tick" opacity="1" transform="translate(414.89523861589,0)"><line stroke="#231F20" y2="70" stroke-width="0.5" y1="0"></line><text fill="currentColor" y="-9" dy="0em" aria-hidden="true">1930</text></g><g class="tick" opacity="1" transform="translate(490.76895925536815,0)"><line stroke="#231F20" y2="70" stroke-width="0.5" y1="0"></line><text fill="currentColor" y="-9" dy="0em" aria-hidden="true">1932</text></g><g class="tick" opacity="1" transform="translate(566.7466164984621,0)"><line stroke="#231F20" y2="70" stroke-width="0.5" y1="0"></line><text fill="currentColor" y="-9" dy="0em" aria-hidden="true">1934</text></g><g class="tick" opacity="1" transform="translate(642.6203371379404,0)"><line stroke="#231F20" y2="70" stroke-width="0.5" y1="0"></line><text fill="currentColor" y="-9" dy="0em" aria-hidden="true">1936</text></g><g class="tick" opacity="1" transform="translate(718.5979943810344,0)"><line stroke="#231F20" y2="70" stroke-width="0.5" y1="0"></line><text fill="currentColor" y="-9" dy="0em" aria-hidden="true">1938</text></g><g class="tick" opacity="1" transform="translate(794.4717150205125,0)"><line stroke="#231F20" y2="70" stroke-width="0.5" y1="0"></line><text fill="currentColor" y="-9" dy="0em" aria-hidden="true">1940</text></g><g class="tick" opacity="1" transform="translate(870.4493722636065,0)"><line stroke="#231F20" y2="70" stroke-width="0.5" y1="0"></line><text fill="currentColor" y="-9" dy="0em" aria-hidden="true">1942</text></g></g><g class="activityrange-bars"><rect class="overallActivities" x="142.57936670168618" y="60" fill="#231F20" opacity="0.2" width="15.59049054235851" height="40"></rect><rect class="overallActivities" x="180.62016362504102" y="60" fill="#231F20" opacity="0.2" width="56.64544897056936" height="40"></rect><rect class="overallActivities" x="240.0719008932349" y="60" fill="#231F20" opacity="0.2" width="40.63921201374791" height="40"></rect><rect class="overallActivities" x="281.7504789431401" y="60" fill="#231F20" opacity="0.2" width="78.78394554071849" height="40"></rect><rect class="overallActivities" x="360.74229769108996" y="60" fill="#231F20" opacity="0.2" width="7.379498856716452" height="40"></rect><rect class="overallActivities" x="380.1784425672303" y="60" fill="#231F20" opacity="0.2" width="16.73379318213148" height="40"></rect><rect class="overallActivities" x="397.224045560209" y="60" fill="#231F20" opacity="0.2" width="17.773159218288697" height="40"></rect><rect class="overallActivities" x="433.0821738076336" y="60" fill="#231F20" opacity="0.2" width="5.092893577170457" height="40"></rect><rect class="overallActivities" x="439.2144334209613" y="60" fill="#231F20" opacity="0.2" width="12.992075451965434" height="40"></rect><rect class="overallActivities" x="452.7261918910054" y="60" fill="#231F20" opacity="0.2" width="2.702351694008769" height="40"></rect><rect class="overallActivities" x="455.63641679224565" y="60" fill="#231F20" opacity="0.2" width="13.096012055581127" height="40"></rect><rect class="overallActivities" x="487.02527108419423" y="60" fill="#231F20" opacity="0.2" width="33.05183994980001" height="40"></rect><rect class="overallActivities" x="540.7604951535233" y="60" fill="#231F20" opacity="0.2" width="19.124335065293167" height="40"></rect><rect class="overallActivities" x="565.1855970032184" y="60" fill="#231F20" opacity="0.2" width="1.4551124506200495" height="40"></rect><rect class="overallActivities" x="576.7225600045637" y="60" fill="#231F20" opacity="0.2" width="3.4299079193189073" height="40"></rect><rect class="overallActivities" x="585.1414248974372" y="60" fill="#231F20" opacity="0.2" width="9.56216753264664" height="40"></rect><rect class="overallActivities" x="615.8027229640757" y="60" fill="#231F20" opacity="0.2" width="76.91308667563544" height="40"></rect><rect class="overallActivities" x="697.7047666132659" y="60" fill="#231F20" opacity="0.2" width="4.573210559091876" height="40"></rect><rect class="overallActivities" x="702.4858503795891" y="60" fill="#231F20" opacity="0.2" width="28.894375805171194" height="40"></rect><rect class="overallActivities" x="731.6920359956075" y="60" fill="#231F20" opacity="0.2" width="7.171625649484895" height="40"></rect><rect class="overallActivities" x="746.4510337090402" y="60" fill="#231F20" opacity="0.2" width="27.439263354551144" height="40"></rect><rect class="overallActivities" x="774.4099800816699" y="60" fill="#231F20" opacity="0.2" width="1.66298565785155" height="40"></rect><rect class="overallActivities" x="776.280838946753" y="60" fill="#231F20" opacity="0.2" width="4.988956973554764" height="40"></rect><rect class="overallActivities" x="782.6209717673121" y="60" fill="#231F20" opacity="0.2" width="21.203067137607604" height="40"></rect></g></svg>