<svg viewBox="0,0,975,500" xmlns="http://www.w3.org/2000/svg" xmlns:xlink="http://www.w3.org/1999/xlink"><g><path fill="#1f77b4" d="M40,327L109.61538461538461,343.5L179.23076923076923,367.5L248.84615384615387,301.5L318.46153846153845,254L388.0769230769231,216.5L457.69230769230774,163.5L527.3076923076923,160.5L596.9230769230769,189L666.5384615384615,127.5L736.1538461538462,194L805.7692307692307,158L875.3846153846155,183.5L945,115.5L945,267.5L945,470L945,470L875.3846153846155,470L805.7692307692307,470L736.1538461538462,470L666.5384615384615,470L596.9230769230769,470L527.3076923076923,470L457.69230769230774,470L388.0769230769231,470L318.46153846153845,470L248.84615384615387,470L179.23076923076923,470L109.61538461538461,470L40,470Z"><title>com</title></path><path fill="#ff7f0e" d="M40,311L109.61538461538461,324.5L179.23076923076923,357.5L248.84615384615387,283.5L318.46153846153845,232.5L388.0769230769231,201.5L457.69230769230774,141.5L527.3076923076923,141.5L596.9230769230769,175.5L666.5384615384615,111L736.1538461538462,181.5L805.7692307692307,146.5L875.3846153846155,178L945,108.5L945,263.5L945,267.5L945,115.5L875.3846153846155,183.5L805.7692307692307,158L736.1538461538462,194L666.5384615384615,127.5L596.9230769230769,189L527.3076923076923,160.5L457.69230769230774,163.5L388.0769230769231,216.5L318.46153846153845,254L248.84615384615387,301.5L179.23076923076923,367.5L109.61538461538461,343.5L40,327Z"><title>net</title></path><path fill="#2ca02c" d="M40,290.5L109.61538461538461,315.5L179.23076923076923,354.5L248.84615384615387,280.5L318.46153846153845,224.5L388.0769230769231,196L457.69230769230774,134.5L527.3076923076923,134.5L596.9230769230769,168.5L666.5384615384615,105.5L736.1538461538462,177.5L805.7692307692307,139.5L875.3846153846155,176.5L945,104L945,262L945,263.5L945,108.5L875.3846153846155,178L805.7692307692307,146.5L736.1538461538462,181.5L666.5384615384615,111L596.9230769230769,175.5L527.3076923076923,141.5L457.69230769230774,141.5L388.0769230769231,201.5L318.46153846153845,232.5L248.84615384615387,283.5L179.23076923076923,357.5L109.61538461538461,324.5L40,311Z"><title>org</title></path><path fill="#d62728" d="M40,278.5L109.61538461538461,310.5L179.23076923076923,351L248.84615384615387,278L318.46153846153845,217.00000000000003L388.0769230769231,192.5L457.69230769230774,127.5L527.3076923076923,129.5L596.9230769230769,165.5L666.5384615384615,94L736.1538461538462,169.5L805.7692307692307,132L875.3846153846155,170.5L945,98L945,260.5L945,262L945,104L875.3846153846155,176.5L805.7692307692307,139.5L736.1538461538462,177.5L666.5384615384615,105.5L596.9230769230769,168.5L527.3076923076923,134.5L457.69230769230774,134.5L388.0769230769231,196L318.46153846153845,224.5L248.84615384615387,280.5L179.23076923076923,354.5L109.61538461538461,315.5L40,290.5Z"><title>de</title></path><path fill="#9467bd" d="M40,274L109.61538461538461,309L179.23076923076923,347L248.84615384615387,271L318.46153846153845,210.5L388.0769230769231,188.5L457.69230769230774,118L527.3076923076923,123L596.9230769230769,161.5L666.5384615384615,87.5L736.1538461538462,165L805.7692307692307,123L875.3846153846155,163.5L945,90.5L945,257.5L945,260.5L945,98L875.3846153846155,170.5L805.7692307692307,132L736.1538461538462,169.5L666.5384615384615,94L596.9230769230769,165.5L527.3076923076923,129.5L457.69230769230774,127.5L388.0769230769231,192.5L318.46153846153845,217.00000000000003L248.84615384615387,278L179.23076923076923,351L109.61538461538461,310.5L40,278.5Z"><title>uk</title></path><path fill="#8c564b" d="M40,267L109.61538461538461,307L179.23076923076923,346L248.84615384615387,267.5L318.46153846153845,205.5L388.0769230769231,181L457.69230769230774,110L527.3076923076923,114.5L596.9230769230769,155L666.5384615384615,81.5L736.1538461538462,160L805.7692307692307,118.5L875.3846153846155,157L945,86L945,257L945,257.5L945,90.5L875.3846153846155,163.5L805.7692307692307,123L736.1538461538462,165L666.5384615384615,87.5L596.9230769230769,161.5L527.3076923076923,123L457.69230769230774,118L388.0769230769231,188.5L318.46153846153845,210.5L248.84615384615387,271L179.23076923076923,347L109.61538461538461,309L40,274Z"><title>br</title></path><path fill="#e377c2" d="M40,260L109.61538461538461,301.5L179.23076923076923,343L248.84615384615387,267L318.46153846153845,201L388.0769230769231,176.5L457.69230769230774,105.5L527.3076923076923,111.5L596.9230769230769,152L666.5384615384615,78.5L736.1538461538462,157.5L805.7692307692307,116L875.3846153846155,153.5L945,84L945,254.5L945,257L945,86L875.3846153846155,157L805.7692307692307,118.5L736.1538461538462,160L666.5384615384615,81.5L596.9230769230769,155L527.3076923076923,114.5L457.69230769230774,110L388.0769230769231,181L318.46153846153845,205.5L248.84615384615387,267.5L179.23076923076923,346L109.61538461538461,307L40,267Z"><title>au</title></path><path fill="#7f7f7f" d="M40,254.5L109.61538461538461,300L179.23076923076923,342L248.84615384615387,265.5L318.46153846153845,198.5L388.0769230769231,175L457.69230769230774,103L527.3076923076923,108L596.9230769230769,147.5L666.5384615384615,76.5L736.1538461538462,154L805.7692307692307,109L875.3846153846155,148.5L945,80L945,250.5L945,254.5L945,84L875.3846153846155,153.5L805.7692307692307,116L736.1538461538462,157.5L666.5384615384615,78.5L596.9230769230769,152L527.3076923076923,111.5L457.69230769230774,105.5L388.0769230769231,176.5L318.46153846153845,201L248.84615384615387,267L179.23076923076923,343L109.61538461538461,301.5L40,260Z"><title>it</title></path><path fill="#bcbd22" d="M40,249.5L109.61538461538461,297L179.23076923076923,341L248.84615384615387,263.5L318.46153846153845,193.5L388.0769230769231,171.5L457.69230769230774,100L527.3076923076923,105L596.9230769230769,145L666.5384615384615,72.5L736.1538461538462,150.5L805.7692307692307,104L875.3846153846155,147.5L945,76L945,249L945,250.5L945,80L875.3846153846155,148.5L805.7692307692307,109L736.1538461538462,154L666.5384615384615,76.5L596.9230769230769,147.5L527.3076923076923,108L457.69230769230774,103L388.0769230769231,175L318.46153846153845,198.5L248.84615384615387,265.5L179.23076923076923,342L109.61538461538461,300L40,254.5Z"><title>nl</title></path><path fill="#17becf" d="M40,245.5L109.61538461538461,293.5L179.23076923076923,339L248.84615384615387,260.5L318.46153846153845,190L388.0769230769231,169.5L457.69230769230774,99L527.3076923076923,102L596.9230769230769,144L666.5384615384615,69.5L736.1538461538462,146L805.7692307692307,102L875.3846153846155,142.5L945,72.5L945,248.5L945,249L945,76L875.3846153846155,147.5L805.7692307692307,104L736.1538461538462,150.5L666.5384615384615,72.5L596.9230769230769,145L527.3076923076923,105L457.69230769230774,100L388.0769230769231,171.5L318.46153846153845,193.5L248.84615384615387,263.5L179.23076923076923,341L109.61538461538461,297L40,249.5Z"><title>edu</title></path></g><g transform="translate(0,470)" fill="none" font-size="10" font-family="sans-serif" text-anchor="middle"><path class="domain" stroke="currentColor" d="M40.5,6V0.5H945.5V6"/><g class="tick" opacity="1" transform="translate(40.5,0)"><line stroke="currentColor" y2="6"/><text fill="currentColor" y="9" dy="0.71em">2003</text></g><g class="tick" opacity="1" transform="translate(110.11538461538461,0)"><line stroke="currentColor" y2="6"/><text fill="currentColor" y="9" dy="0.71em">2004</text></g><g class="tick" opacity="1" transform="translate(179.73076923076923,0)"><line stroke="currentColor" y2="6"/><text fill="currentColor" y="9" dy="0.71em">2005</text></g><g class="tick" opacity="1" transform="translate(249.34615384615387,0)"><line stroke="currentColor" y2="6"/><text fill="currentColor" y="9" dy="0.71em">2006</text></g><g class="tick" opacity="1" transform="translate(318.96153846153845,0)"><line stroke="currentColor" y2="6"/><text fill="currentColor" y="9" dy="0.71em">2007</text></g><g class="tick" opacity="1" transform="translate(388.5769230769231,0)"><line stroke="currentColor" y2="6"/><text fill="currentColor" y="9" dy="0.71em">2008</text></g><g class="tick" opacity="1" transform="translate(458.19230769230774,0)"><line stroke="currentColor" y2="6"/><text fill="currentColor" y="9" dy="0.71em">2009</text></g><g class="tick" opacity="1" transform="translate(527.8076923076923,0)"><line stroke="currentColor" y2="6"/><text fill="currentColor" y="9" dy="0.71em">2010</text></g><g class="tick" opacity="1" transform="translate(597.4230769230769,0)"><line stroke="currentColor" y2="6"/><text fill="currentColor" y="9" dy="0.71em">2011</text></g><g class="tick" opacity="1" transform="translate(667.0384615384615,0)"><line stroke="currentColor" y2="6"/><text fill="currentColor" y="9" dy="0.71em">2012</text></g><g class="tick" opacity="1" transform="translate(736.6538461538462,0)"><line stroke="currentColor" y2="6"/><text fill="currentColor" y="9" dy="0.71em">2013</text></g><g class="tick" opacity="1" transform="translate(806.2692307692307,0)"><line stroke="currentColor" y2="6"/><text fill="currentColor" y="9" dy="0.71em">2014</text></g><g class="tick" opacity="1" transform="translate(875.8846153846155,0)"><line stroke="currentColor" y2="6"/><text fill="currentColor" y="9" dy="0.71em">2015</text></g><g class="tick" opacity="1" transform="translate(945.5,0)"><line stroke="currentColor" y2="6"/><text fill="currentColor" y="9" dy="0.71em">2016</text></g></g><g transform="translate(40,0)" fill="none" font-size="10" font-family="sans-serif" text-anchor="end"><g class="tick" opacity="1" transform="translate(0,470.5)"><line stroke="currentColor" x2="-6"/><text fill="currentColor" x="-9" dy="0.32em">0</text></g><g class="tick" opacity="1" transform="translate(0,420.5)"><line stroke="currentColor" x2="-6"/><text fill="currentColor" x="-9" dy="0.32em">100</text></g><g class="tick" opacity="1" transform="translate(0,370.5)"><line stroke="currentColor" x2="-6"/><text fill="currentColor" x="-9" dy="0.32em">200</text></g><g class="tick" opacity="1" transform="translate(0,320.5)"><line stroke="currentColor" x2="-6"/><text fill="currentColor" x="-9" dy="0.32em">300</text></g><g class="tick" opacity="1" transform="translate(0,270.5)"><line stroke="currentColor" x2="-6"/><text fill="currentColor" x="-9" dy="0.32em">400</text></g><g class="tick" opacity="1" transform="translate(0,220.5)"><line stroke="currentColor" x2="-6"/><text fill="currentColor" x="-9" dy="0.32em">500</text></g><g class="tick" opacity="1" transform="translate(0,170.5)"><line stroke="currentColor" x2="-6"/><text fill="currentColor" x="-9" dy="0.32em">600</text></g><g class="tick" opacity="1" transform="translate(0,120.5)"><line stroke="currentColor" x2="-6"/><text fill="currentColor" x="-9" dy="0.32em">700</text></g><g class="tick" opacity="1" transform="translate(0,70.5)"><line stroke="currentColor" x2="-6"/><text fill="currentColor" x="-9" dy="0.32em">800</text></g><g class="tick" opacity="1" transform="translate(0,20.5)"><line stroke="currentColor" x2="-6"/><text fill="currentColor" x="-9" dy="0.32em">900</text><text fill="currentColor" x="3" dy="0.32em" text-anchor="start" font-weight="bold">Agile manifesto signature emails by top-level domain</text></g></g></svg>